<?xml version="1.0" encoding="utf-8"?>
<!-- Generator: Adobe Illustrator 24.1.1, SVG Export Plug-In . SVG Version: 6.00 Build 0)  -->
<svg version="1.1" id="Capa_1" xmlns="http://www.w3.org/2000/svg" xmlns:xlink="http://www.w3.org/1999/xlink" x="0px" y="0px"
	 viewBox="0 0 141.7 81.2" style="enable-background:new 0 0 141.7 81.2;" xml:space="preserve">
<style type="text/css">
	.st0{fill:#FFFFFF;}
</style>
<g>
	<g>
		<path class="st0" d="M82.3,23.7c0,0,0.7-0.7,0.7-2.5c0-2.8-2.9-9.7-23.3-9.7c-20.4,0-33.3,5.6-33.3,9.6c0,2.2,1.1,3.2,1.1,3.2
			L0,26.9c0,0,11.7-11.7,33-19.6c18.6-6.9,41.2-9.9,57.7-4.6C108.7,8.6,101.8,20.5,82.3,23.7z"/>
		<path class="st0" d="M59.5,14.6c0,0-0.7,0.7-0.7,2.5c0,2.8,2.9,9.7,23.3,9.7s33.3-5.6,33.3-9.6c0-2.2-1.1-3.2-1.1-3.2l27.5-2.5
			c0,0-11.7,11.7-33,19.6c-18.6,6.9-41.2,9.9-57.7,4.6C33,29.7,40,17.8,59.5,14.6z"/>
	</g>
	<g>
		<path class="st0" d="M0,73.6l0-25.9l6.2,0l0,25.9H0z"/>
		<path class="st0" d="M20.3,74.1c-3.1,0-5.6-0.8-7.5-2.5c-1.9-1.7-2.8-3.9-2.8-6.7c0-2.9,0.9-5.2,2.8-6.9c1.8-1.7,4.4-2.5,7.6-2.5
			c3.1,0,5.6,0.9,7.4,2.6c1.8,1.7,2.8,4,2.8,6.8c0,2.8-0.9,5.1-2.8,6.8C25.9,73.2,23.4,74.1,20.3,74.1z M17.4,68.4
			c0.7,1,1.7,1.4,2.9,1.4s2.1-0.5,2.8-1.4c0.7-0.9,1.1-2.2,1.1-3.7c0-1.6-0.4-2.8-1.1-3.8c-0.7-1-1.7-1.4-2.9-1.4
			c-1.1,0-2.1,0.5-2.8,1.4c-0.7,1-1.1,2.2-1.1,3.6C16.3,66.2,16.7,67.5,17.4,68.4z"/>
		<path class="st0" d="M42.5,81.2c-2.7,0-5.1-0.4-7.3-1.2l0.4-4.8c2.1,1.1,4.2,1.6,6.3,1.6c1.7,0,3-0.4,4-1.1c0.9-0.7,1.4-2,1.4-3.8
			c0-0.6,0-1.1,0.1-1.6h-0.1c-1.4,2.1-3.4,3.2-6,3.2c-2.4,0-4.3-0.8-5.7-2.5c-1.5-1.7-2.2-3.9-2.2-6.6c0-2.7,0.8-4.9,2.3-6.5
			c1.5-1.7,3.5-2.5,5.8-2.5c2.5,0,4.4,0.9,5.8,2.8h0.1c0-0.7-0.1-1.5-0.1-2.4l5.9,0l0,16c0,3.2-0.9,5.6-2.8,7.1
			C48.5,80.5,45.9,81.2,42.5,81.2z M40.7,67.6c0.7,0.9,1.6,1.3,2.6,1.3c1.1,0,2-0.4,2.7-1.3c0.7-0.9,1.1-1.9,1.1-3.2
			c0-1.3-0.4-2.4-1.1-3.3c-0.7-0.8-1.7-1.3-2.8-1.3c-1,0-1.9,0.4-2.6,1.3c-0.7,0.8-1,1.9-1,3.2C39.7,65.7,40,66.8,40.7,67.6z"/>
		<path class="st0" d="M57.8,53.2v-4.6H64v4.6H57.8z M57.8,73.6l0-17.8l6.2,0l0,17.8H57.8z"/>
		<path class="st0" d="M68.7,73.6l0-12c0-1.8-0.1-3.8-0.2-5.8l5.8,0c0.1,1,0.1,2,0.1,3.1h0.1c0.7-1,1.6-1.9,2.7-2.5
			c1.1-0.7,2.3-1,3.6-1c2.2,0,3.9,0.7,5.1,2c1.2,1.3,1.8,3.2,1.8,5.6l0,10.7h-6.2l0-8.5c0-1.7-0.2-3-0.6-3.7s-1.2-1.1-2.2-1.1
			c-1.4,0-2.5,0.6-3.1,1.8c-0.5,0.9-0.7,2.2-0.7,3.9v7.6L68.7,73.6z"/>
		<path class="st0" d="M100.7,73.9c-2.4,0-4.1-0.5-5.2-1.6c-1.1-1-1.7-2.7-1.7-4.9V60l-3.3,0v-4.2l3.6,0v-4l5.9-1.9v6l4.3,0V60h-4.3
			l0,7c0,1.8,0.8,2.7,2.4,2.7c0.7,0,1.3-0.1,1.9-0.2l0.2,4C103.2,73.8,101.9,73.9,100.7,73.9z"/>
		<path class="st0" d="M117.4,74.1c-3.2,0-5.8-0.8-7.7-2.5c-1.9-1.7-2.9-4-2.9-6.9c0-2.8,0.9-5,2.7-6.7s4.2-2.6,7.1-2.6
			c2.7,0,4.9,0.8,6.4,2.4c1.5,1.6,2.3,4,2.3,7.2c0,0.6,0,1.1-0.1,1.4l-12.4,0c0.1,1,0.6,1.9,1.5,2.5c0.9,0.6,2.1,0.9,3.7,0.9
			c1.9,0,3.7-0.4,5.4-1.3l0.2,4.3C122.1,73.7,120,74.1,117.4,74.1z M112.9,62.8l6.9,0c0-2.3-1.1-3.5-3.2-3.5c-1,0-1.8,0.3-2.4,0.9
			C113.4,60.9,113,61.7,112.9,62.8z"/>
		<path class="st0" d="M128.9,73.6V61.1c0-2.3-0.1-4.1-0.2-5.3h5.6c0.1,1.1,0.2,2.4,0.2,3.9h0.1c0.9-2.9,2.6-4.3,5.3-4.3
			c0.8,0,1.5,0.1,2,0.2l-0.2,5.2c-0.6-0.2-1.3-0.3-2-0.3c-1.6,0-2.7,0.5-3.4,1.6c-0.7,1.1-1,2.8-1,5.2v6.3H128.9z"/>
	</g>
</g>
</svg>
