<?xml version="1.0" encoding="utf-8"?>

<svg viewBox="0 0 500 500" xmlns="http://www.w3.org/2000/svg" xmlns:bx="https://boxy-svg.com">

  <style>
    .bounce {
    animation: bounce 0.2s;
    animation-iteration-count: infinite;
    }

    .obj
    {
    animation: ongoing 4s;
    animation-iteration-count: infinite;
    }

    .obj2
    {
    animation: ongoing 4s;
    animation-iteration-count: infinite;
    animation-delay: 3s;
    }

    @keyframes ongoing {

    0%{
    transform: translateX(700px);
    }
    }

    @keyframes bounce {
    0%,
    25%,
    50%,
    75%,
    100% {
    transform: translateY(0);
    }
    40% {
    transform: translateY(-4px);
    }
    60% {
    transform: translateY(-4px);
    }
    }


  </style>

  <rect x="-200" y="247" width="60" height="120" style="fill: rgb(128, 103, 54);" class="obj"/>

  <rect x="-200" y="290" width="50" height="80" style="fill: rgb(182,149,83);" class="obj2"/>

  <ellipse style="fill: rgb(70, 70, 70);" cx="245.639" cy="365.918" rx="210.029" ry="8.614" class="bounce"/>
  <g style="" class="bounce">
    <g>
      <path style="fill: rgb(176, 176, 176); stroke: rgb(144, 144, 144);" d="M 321.893 316.602 L 321.893 165.276 L 407.39 167.906 C 420.034 168.071 424.246 179.639 422.007 181.95 L 438.265 233.661 C 444.565 280.171 441.394 317.541 439.976 317.541 L 444.183 318.565 L 443.329 340.141 L 63.668 338.259 L 62.793 321.31 L 321.893 323.192 L 321.893 316.602 Z"/>
    </g>
    <g transform="matrix(0.950675, 0, 0, 1.185155, 0.489252, -48.175526)" style="">
      <polygon style="stroke: rgb(0, 0, 0); stroke-width: 0px; fill: rgb(243, 243, 243);" points="443.527 192.852 429.579 192.852 443.527 236.076 461.197 237.058"/>
      <polygon style="stroke: rgb(0, 0, 0); stroke-width: 0px; fill: rgb(239, 239, 239);" points="420.2120056152344 192.91900634765625 434.2279968261719 236.0760040283203 379.9570007324219 232.84800720214844 376.9010009765625 192.3419952392578"/>
    </g>
    <ellipse style="fill: rgb(0, 87, 228);" cx="437.716" cy="300.126" rx="3.097" ry="13.536"/>
    <rect x="58.476" y="322.68" width="9.515" height="13.971" style="fill: rgb(255, 30, 0);"/>
    <path style="stroke: rgb(0, 0, 0);" d="M 355.385 277.5 C 385.237 277.5 401.911 289.276 403.111 314.072 C 404.805 349.076 376.883 354.692 355.385 355.251" transform="matrix(0.00652, -0.999979, 0.999979, 0.00652, 60.443059, 693.589448)"/>
  </g>
  <g style="" transform="matrix(0.933157, 0, 0, 1.144778, 3.878901, -34.976105)"  >
    <rect x="34.884" y="156.25" width="297.574" height="149.319" style="stroke: rgb(238, 0, 0); fill: rgb(179, 0, 0);" rx="2.907" ry="2.907"/>
    <rect x="35.816" y="173.934" width="294.784" height="37.329" style="fill: rgb(195, 0, 0);"/>
    <rect x="36.744" y="247.609" width="293.855" height="35.365" style="fill: rgb(198, 0, 0);"/>
  </g>
  <g transform="matrix(1.205501, 0, 0, 1.291116, 3.840846, 0.199735)" style="" >
    <circle style="fill: rgb(216, 216, 216);" cx="311.047" cy="257.914" r="20.785">

    </circle>

    <path d="M 333 428 m -25.69 0 a 25.69 25.818 0 1 0 51.38 0 a 25.69 25.818 0 1 0 -51.38 0 Z M 333 428 m -15.414 0 a 15.414 15.492 0 0 1 30.828 0 a 15.414 15.492 0 0 1 -30.828 0 Z" style="filter: none; fill: rgb(24, 24, 41);" transform="matrix(-0.595847, 0.803098, -0.803098, -0.595847, 853.55277, 245.585084)" bx:shape="ring 333 428 15.414 15.492 25.69 25.818 1@2398568b"/>
  </g>
  <g transform="matrix(1.251027, 0, 0, 1.350903, -257.712585, -16.040602)" style="" >
    <circle style="fill: rgb(216, 216, 216);" cx="311.047" cy="257.914" r="20.785"
	
	
	>


    </circle>

    <path  d="M 333 428 m -25.69 0 a 25.69 25.818 0 1 0 51.38 0 a 25.69 25.818 0 1 0 -51.38 0 Z M 333 428 m -15.414 0 a 15.414 15.492 0 0 1 30.828 0 a 15.414 15.492 0 0 1 -30.828 0 Z" style="filter: none; fill: rgb(24, 24, 41);" transform="matrix(-0.595847, 0.803098, -0.803098, -0.595847, 853.55277, 245.585084)" bx:shape="ring 333 428 15.414 15.492 25.69 25.818 1@2398568b">



    </path>
  </g>

  <g transform="matrix(1, 0, 0, 1, 107.829063, 188.972122)">
    <g>
      <path class="st0" d="M82.3,23.7c0,0,0.7-0.7,0.7-2.5c0-2.8-2.9-9.7-23.3-9.7c-20.4,0-33.3,5.6-33.3,9.6c0,2.2,1.1,3.2,1.1,3.2 L0,26.9c0,0,11.7-11.7,33-19.6c18.6-6.9,41.2-9.9,57.7-4.6C108.7,8.6,101.8,20.5,82.3,23.7z" style="fill: rgb(255, 255, 255);"/>
      <path class="st0" d="M59.5,14.6c0,0-0.7,0.7-0.7,2.5c0,2.8,2.9,9.7,23.3,9.7s33.3-5.6,33.3-9.6c0-2.2-1.1-3.2-1.1-3.2l27.5-2.5 c0,0-11.7,11.7-33,19.6c-18.6,6.9-41.2,9.9-57.7,4.6C33,29.7,40,17.8,59.5,14.6z" style="fill: rgb(255, 255, 255);"/>
    </g>
    <g>
      <path class="st0" d="M0,73.6l0-25.9l6.2,0l0,25.9H0z" style="fill: rgb(255, 255, 255);"/>
      <path class="st0" d="M20.3,74.1c-3.1,0-5.6-0.8-7.5-2.5c-1.9-1.7-2.8-3.9-2.8-6.7c0-2.9,0.9-5.2,2.8-6.9c1.8-1.7,4.4-2.5,7.6-2.5 c3.1,0,5.6,0.9,7.4,2.6c1.8,1.7,2.8,4,2.8,6.8c0,2.8-0.9,5.1-2.8,6.8C25.9,73.2,23.4,74.1,20.3,74.1z M17.4,68.4 c0.7,1,1.7,1.4,2.9,1.4s2.1-0.5,2.8-1.4c0.7-0.9,1.1-2.2,1.1-3.7c0-1.6-0.4-2.8-1.1-3.8c-0.7-1-1.7-1.4-2.9-1.4 c-1.1,0-2.1,0.5-2.8,1.4c-0.7,1-1.1,2.2-1.1,3.6C16.3,66.2,16.7,67.5,17.4,68.4z" style="fill: rgb(255, 255, 255);"/>
      <path class="st0" d="M42.5,81.2c-2.7,0-5.1-0.4-7.3-1.2l0.4-4.8c2.1,1.1,4.2,1.6,6.3,1.6c1.7,0,3-0.4,4-1.1c0.9-0.7,1.4-2,1.4-3.8 c0-0.6,0-1.1,0.1-1.6h-0.1c-1.4,2.1-3.4,3.2-6,3.2c-2.4,0-4.3-0.8-5.7-2.5c-1.5-1.7-2.2-3.9-2.2-6.6c0-2.7,0.8-4.9,2.3-6.5 c1.5-1.7,3.5-2.5,5.8-2.5c2.5,0,4.4,0.9,5.8,2.8h0.1c0-0.7-0.1-1.5-0.1-2.4l5.9,0l0,16c0,3.2-0.9,5.6-2.8,7.1 C48.5,80.5,45.9,81.2,42.5,81.2z M40.7,67.6c0.7,0.9,1.6,1.3,2.6,1.3c1.1,0,2-0.4,2.7-1.3c0.7-0.9,1.1-1.9,1.1-3.2 c0-1.3-0.4-2.4-1.1-3.3c-0.7-0.8-1.7-1.3-2.8-1.3c-1,0-1.9,0.4-2.6,1.3c-0.7,0.8-1,1.9-1,3.2C39.7,65.7,40,66.8,40.7,67.6z" style="fill: rgb(255, 255, 255);"/>
      <path class="st0" d="M57.8,53.2v-4.6H64v4.6H57.8z M57.8,73.6l0-17.8l6.2,0l0,17.8H57.8z" style="fill: rgb(255, 255, 255);"/>
      <path class="st0" d="M68.7,73.6l0-12c0-1.8-0.1-3.8-0.2-5.8l5.8,0c0.1,1,0.1,2,0.1,3.1h0.1c0.7-1,1.6-1.9,2.7-2.5 c1.1-0.7,2.3-1,3.6-1c2.2,0,3.9,0.7,5.1,2c1.2,1.3,1.8,3.2,1.8,5.6l0,10.7h-6.2l0-8.5c0-1.7-0.2-3-0.6-3.7s-1.2-1.1-2.2-1.1 c-1.4,0-2.5,0.6-3.1,1.8c-0.5,0.9-0.7,2.2-0.7,3.9v7.6L68.7,73.6z" style="fill: rgb(255, 255, 255);"/>
      <path class="st0" d="M100.7,73.9c-2.4,0-4.1-0.5-5.2-1.6c-1.1-1-1.7-2.7-1.7-4.9V60l-3.3,0v-4.2l3.6,0v-4l5.9-1.9v6l4.3,0V60h-4.3 l0,7c0,1.8,0.8,2.7,2.4,2.7c0.7,0,1.3-0.1,1.9-0.2l0.2,4C103.2,73.8,101.9,73.9,100.7,73.9z" style="fill: rgb(255, 255, 255);"/>
      <path class="st0" d="M117.4,74.1c-3.2,0-5.8-0.8-7.7-2.5c-1.9-1.7-2.9-4-2.9-6.9c0-2.8,0.9-5,2.7-6.7s4.2-2.6,7.1-2.6 c2.7,0,4.9,0.8,6.4,2.4c1.5,1.6,2.3,4,2.3,7.2c0,0.6,0,1.1-0.1,1.4l-12.4,0c0.1,1,0.6,1.9,1.5,2.5c0.9,0.6,2.1,0.9,3.7,0.9 c1.9,0,3.7-0.4,5.4-1.3l0.2,4.3C122.1,73.7,120,74.1,117.4,74.1z M112.9,62.8l6.9,0c0-2.3-1.1-3.5-3.2-3.5c-1,0-1.8,0.3-2.4,0.9 C113.4,60.9,113,61.7,112.9,62.8z" style="fill: rgb(255, 255, 255);"/>
      <path class="st0" d="M128.9,73.6V61.1c0-2.3-0.1-4.1-0.2-5.3h5.6c0.1,1.1,0.2,2.4,0.2,3.9h0.1c0.9-2.9,2.6-4.3,5.3-4.3 c0.8,0,1.5,0.1,2,0.2l-0.2,5.2c-0.6-0.2-1.3-0.3-2-0.3c-1.6,0-2.7,0.5-3.4,1.6c-0.7,1.1-1,2.8-1,5.2v6.3H128.9z" style="fill: rgb(255, 255, 255);"/>
    </g>
  </g>
</svg>